G04 (created by PCBNEW (22-Jun-2014 BZR 4027)-stable) date Sat 20 Dec 2014 16:30:47 GMT*
%MOIN*%
G04 Gerber Fmt 3.4, Leading zero omitted, Abs format*
%FSLAX34Y34*%
G01*
G70*
G90*
G04 APERTURE LIST*
%ADD10C,0.00590551*%
%ADD11C,0.06*%
%ADD12C,0.055*%
%ADD13R,0.055X0.055*%
%ADD14C,0.0669291*%
%ADD15C,0.0511811*%
%ADD16C,0.01*%
G04 APERTURE END LIST*
G54D10*
G54D11*
X90000Y-48500D03*
X94500Y-48500D03*
G54D12*
X91000Y-45500D03*
X92000Y-45500D03*
X93000Y-45500D03*
X94000Y-45500D03*
X95000Y-45500D03*
X96000Y-45500D03*
X97000Y-45500D03*
X98000Y-45500D03*
X99000Y-45500D03*
X100000Y-45500D03*
X101000Y-45500D03*
X102000Y-45500D03*
X103000Y-45500D03*
G54D13*
X90000Y-45500D03*
G54D12*
X103000Y-42500D03*
X102000Y-42500D03*
X101000Y-42500D03*
X100000Y-42500D03*
X99000Y-42500D03*
X98000Y-42500D03*
X97000Y-42500D03*
X96000Y-42500D03*
X95000Y-42500D03*
X94000Y-42500D03*
X93000Y-42500D03*
X92000Y-42500D03*
X91000Y-42500D03*
X90000Y-42500D03*
X98200Y-49400D03*
X99200Y-49400D03*
X101550Y-48300D03*
X101550Y-47300D03*
X90250Y-47000D03*
X91250Y-47000D03*
G54D14*
X95500Y-50000D03*
X94500Y-50000D03*
X93500Y-50000D03*
X92500Y-50000D03*
X91500Y-50000D03*
X90500Y-50000D03*
G54D15*
X98950Y-47400D03*
X96950Y-47400D03*
G54D14*
X91250Y-41000D03*
X92250Y-41000D03*
X90250Y-41000D03*
X93250Y-41000D03*
X96000Y-41000D03*
X97000Y-41000D03*
X98000Y-41000D03*
X103900Y-48200D03*
X104900Y-48200D03*
X103900Y-46900D03*
X104900Y-46900D03*
X102150Y-50100D03*
X103150Y-50100D03*
G54D10*
G36*
X106130Y-50980D02*
X105489Y-50980D01*
X105489Y-48290D01*
X105489Y-46990D01*
X105478Y-46757D01*
X105409Y-46591D01*
X105311Y-46559D01*
X105240Y-46630D01*
X105240Y-46488D01*
X105208Y-46390D01*
X104990Y-46310D01*
X104757Y-46321D01*
X104591Y-46390D01*
X104559Y-46488D01*
X104900Y-46829D01*
X105240Y-46488D01*
X105240Y-46630D01*
X104970Y-46900D01*
X105311Y-47240D01*
X105409Y-47208D01*
X105489Y-46990D01*
X105489Y-48290D01*
X105478Y-48057D01*
X105409Y-47891D01*
X105311Y-47859D01*
X105240Y-47930D01*
X105240Y-47788D01*
X105240Y-47311D01*
X104900Y-46970D01*
X104829Y-47041D01*
X104829Y-46900D01*
X104488Y-46559D01*
X104403Y-46587D01*
X104395Y-46569D01*
X104231Y-46404D01*
X104016Y-46315D01*
X103784Y-46315D01*
X103569Y-46404D01*
X103525Y-46448D01*
X103525Y-45396D01*
X103525Y-42396D01*
X103445Y-42203D01*
X103297Y-42055D01*
X103104Y-41975D01*
X102896Y-41974D01*
X102703Y-42054D01*
X102555Y-42202D01*
X102499Y-42335D01*
X102445Y-42203D01*
X102297Y-42055D01*
X102104Y-41975D01*
X101896Y-41974D01*
X101703Y-42054D01*
X101555Y-42202D01*
X101499Y-42335D01*
X101445Y-42203D01*
X101297Y-42055D01*
X101104Y-41975D01*
X100896Y-41974D01*
X100703Y-42054D01*
X100555Y-42202D01*
X100499Y-42335D01*
X100445Y-42203D01*
X100297Y-42055D01*
X100104Y-41975D01*
X99896Y-41974D01*
X99703Y-42054D01*
X99555Y-42202D01*
X99499Y-42335D01*
X99445Y-42203D01*
X99297Y-42055D01*
X99104Y-41975D01*
X98896Y-41974D01*
X98703Y-42054D01*
X98584Y-42172D01*
X98584Y-40884D01*
X98495Y-40669D01*
X98331Y-40504D01*
X98116Y-40415D01*
X97884Y-40415D01*
X97669Y-40504D01*
X97504Y-40668D01*
X97500Y-40679D01*
X97495Y-40669D01*
X97331Y-40504D01*
X97116Y-40415D01*
X96884Y-40415D01*
X96669Y-40504D01*
X96504Y-40668D01*
X96496Y-40687D01*
X96411Y-40659D01*
X96340Y-40730D01*
X96340Y-40588D01*
X96308Y-40490D01*
X96090Y-40410D01*
X95857Y-40421D01*
X95691Y-40490D01*
X95659Y-40588D01*
X96000Y-40929D01*
X96340Y-40588D01*
X96340Y-40730D01*
X96070Y-41000D01*
X96411Y-41340D01*
X96496Y-41312D01*
X96504Y-41330D01*
X96668Y-41495D01*
X96883Y-41584D01*
X97115Y-41584D01*
X97330Y-41495D01*
X97495Y-41331D01*
X97499Y-41320D01*
X97504Y-41330D01*
X97668Y-41495D01*
X97883Y-41584D01*
X98115Y-41584D01*
X98330Y-41495D01*
X98495Y-41331D01*
X98584Y-41116D01*
X98584Y-40884D01*
X98584Y-42172D01*
X98555Y-42202D01*
X98499Y-42335D01*
X98445Y-42203D01*
X98297Y-42055D01*
X98104Y-41975D01*
X97896Y-41974D01*
X97703Y-42054D01*
X97555Y-42202D01*
X97499Y-42335D01*
X97445Y-42203D01*
X97297Y-42055D01*
X97104Y-41975D01*
X96896Y-41974D01*
X96703Y-42054D01*
X96555Y-42202D01*
X96502Y-42328D01*
X96460Y-42227D01*
X96367Y-42202D01*
X96340Y-42230D01*
X96340Y-41411D01*
X96000Y-41070D01*
X95929Y-41141D01*
X95929Y-41000D01*
X95588Y-40659D01*
X95490Y-40691D01*
X95410Y-40909D01*
X95421Y-41142D01*
X95490Y-41308D01*
X95588Y-41340D01*
X95929Y-41000D01*
X95929Y-41141D01*
X95659Y-41411D01*
X95691Y-41509D01*
X95909Y-41589D01*
X96142Y-41578D01*
X96308Y-41509D01*
X96340Y-41411D01*
X96340Y-42230D01*
X96297Y-42273D01*
X96297Y-42132D01*
X96272Y-42039D01*
X96075Y-41970D01*
X95867Y-41981D01*
X95727Y-42039D01*
X95702Y-42132D01*
X96000Y-42429D01*
X96297Y-42132D01*
X96297Y-42273D01*
X96070Y-42500D01*
X96367Y-42797D01*
X96460Y-42772D01*
X96499Y-42662D01*
X96554Y-42797D01*
X96702Y-42944D01*
X96895Y-43024D01*
X97103Y-43025D01*
X97297Y-42945D01*
X97444Y-42797D01*
X97500Y-42664D01*
X97554Y-42797D01*
X97702Y-42944D01*
X97895Y-43024D01*
X98103Y-43025D01*
X98297Y-42945D01*
X98444Y-42797D01*
X98500Y-42664D01*
X98554Y-42797D01*
X98702Y-42944D01*
X98895Y-43024D01*
X99103Y-43025D01*
X99297Y-42945D01*
X99444Y-42797D01*
X99500Y-42664D01*
X99554Y-42797D01*
X99702Y-42944D01*
X99895Y-43024D01*
X100103Y-43025D01*
X100297Y-42945D01*
X100444Y-42797D01*
X100500Y-42664D01*
X100554Y-42797D01*
X100702Y-42944D01*
X100895Y-43024D01*
X101103Y-43025D01*
X101297Y-42945D01*
X101444Y-42797D01*
X101500Y-42664D01*
X101554Y-42797D01*
X101702Y-42944D01*
X101895Y-43024D01*
X102103Y-43025D01*
X102297Y-42945D01*
X102444Y-42797D01*
X102500Y-42664D01*
X102554Y-42797D01*
X102702Y-42944D01*
X102895Y-43024D01*
X103103Y-43025D01*
X103297Y-42945D01*
X103444Y-42797D01*
X103524Y-42604D01*
X103525Y-42396D01*
X103525Y-45396D01*
X103445Y-45203D01*
X103297Y-45055D01*
X103104Y-44975D01*
X102896Y-44974D01*
X102703Y-45054D01*
X102555Y-45202D01*
X102499Y-45335D01*
X102445Y-45203D01*
X102297Y-45055D01*
X102104Y-44975D01*
X101896Y-44974D01*
X101703Y-45054D01*
X101555Y-45202D01*
X101499Y-45335D01*
X101445Y-45203D01*
X101297Y-45055D01*
X101104Y-44975D01*
X100896Y-44974D01*
X100703Y-45054D01*
X100555Y-45202D01*
X100499Y-45335D01*
X100445Y-45203D01*
X100297Y-45055D01*
X100104Y-44975D01*
X99896Y-44974D01*
X99703Y-45054D01*
X99555Y-45202D01*
X99499Y-45335D01*
X99445Y-45203D01*
X99297Y-45055D01*
X99104Y-44975D01*
X98896Y-44974D01*
X98703Y-45054D01*
X98555Y-45202D01*
X98499Y-45335D01*
X98445Y-45203D01*
X98297Y-45055D01*
X98104Y-44975D01*
X97896Y-44974D01*
X97703Y-45054D01*
X97555Y-45202D01*
X97502Y-45328D01*
X97460Y-45227D01*
X97367Y-45202D01*
X97297Y-45273D01*
X97297Y-45132D01*
X97272Y-45039D01*
X97075Y-44970D01*
X96867Y-44981D01*
X96727Y-45039D01*
X96702Y-45132D01*
X97000Y-45429D01*
X97297Y-45132D01*
X97297Y-45273D01*
X97070Y-45500D01*
X97367Y-45797D01*
X97460Y-45772D01*
X97499Y-45662D01*
X97554Y-45797D01*
X97702Y-45944D01*
X97895Y-46024D01*
X98103Y-46025D01*
X98297Y-45945D01*
X98444Y-45797D01*
X98500Y-45664D01*
X98554Y-45797D01*
X98702Y-45944D01*
X98895Y-46024D01*
X99103Y-46025D01*
X99297Y-45945D01*
X99444Y-45797D01*
X99500Y-45664D01*
X99554Y-45797D01*
X99702Y-45944D01*
X99895Y-46024D01*
X100103Y-46025D01*
X100297Y-45945D01*
X100444Y-45797D01*
X100500Y-45664D01*
X100554Y-45797D01*
X100702Y-45944D01*
X100895Y-46024D01*
X101103Y-46025D01*
X101297Y-45945D01*
X101444Y-45797D01*
X101500Y-45664D01*
X101554Y-45797D01*
X101702Y-45944D01*
X101895Y-46024D01*
X102103Y-46025D01*
X102297Y-45945D01*
X102444Y-45797D01*
X102500Y-45664D01*
X102554Y-45797D01*
X102702Y-45944D01*
X102895Y-46024D01*
X103103Y-46025D01*
X103297Y-45945D01*
X103444Y-45797D01*
X103524Y-45604D01*
X103525Y-45396D01*
X103525Y-46448D01*
X103404Y-46568D01*
X103315Y-46783D01*
X103315Y-47015D01*
X103404Y-47230D01*
X103568Y-47395D01*
X103783Y-47484D01*
X104015Y-47484D01*
X104230Y-47395D01*
X104395Y-47231D01*
X104403Y-47212D01*
X104488Y-47240D01*
X104829Y-46900D01*
X104829Y-47041D01*
X104559Y-47311D01*
X104591Y-47409D01*
X104809Y-47489D01*
X105042Y-47478D01*
X105208Y-47409D01*
X105240Y-47311D01*
X105240Y-47788D01*
X105208Y-47690D01*
X104990Y-47610D01*
X104757Y-47621D01*
X104591Y-47690D01*
X104559Y-47788D01*
X104900Y-48129D01*
X105240Y-47788D01*
X105240Y-47930D01*
X104970Y-48200D01*
X105311Y-48540D01*
X105409Y-48508D01*
X105489Y-48290D01*
X105489Y-50980D01*
X105240Y-50980D01*
X105240Y-48611D01*
X104900Y-48270D01*
X104829Y-48341D01*
X104829Y-48200D01*
X104488Y-47859D01*
X104403Y-47887D01*
X104395Y-47869D01*
X104231Y-47704D01*
X104016Y-47615D01*
X103784Y-47615D01*
X103569Y-47704D01*
X103404Y-47868D01*
X103315Y-48083D01*
X103315Y-48315D01*
X103404Y-48530D01*
X103568Y-48695D01*
X103783Y-48784D01*
X104015Y-48784D01*
X104230Y-48695D01*
X104395Y-48531D01*
X104403Y-48512D01*
X104488Y-48540D01*
X104829Y-48200D01*
X104829Y-48341D01*
X104559Y-48611D01*
X104591Y-48709D01*
X104809Y-48789D01*
X105042Y-48778D01*
X105208Y-48709D01*
X105240Y-48611D01*
X105240Y-50980D01*
X105000Y-50980D01*
X104750Y-50980D01*
X103739Y-50980D01*
X103739Y-50190D01*
X103728Y-49957D01*
X103659Y-49791D01*
X103561Y-49759D01*
X103490Y-49830D01*
X103490Y-49688D01*
X103458Y-49590D01*
X103240Y-49510D01*
X103007Y-49521D01*
X102841Y-49590D01*
X102809Y-49688D01*
X103150Y-50029D01*
X103490Y-49688D01*
X103490Y-49830D01*
X103220Y-50100D01*
X103561Y-50440D01*
X103659Y-50408D01*
X103739Y-50190D01*
X103739Y-50980D01*
X103490Y-50980D01*
X103490Y-50511D01*
X103150Y-50170D01*
X103079Y-50241D01*
X103079Y-50100D01*
X102738Y-49759D01*
X102653Y-49787D01*
X102645Y-49769D01*
X102481Y-49604D01*
X102266Y-49515D01*
X102079Y-49515D01*
X102079Y-47375D01*
X102068Y-47167D01*
X102010Y-47027D01*
X101917Y-47002D01*
X101847Y-47073D01*
X101847Y-46932D01*
X101822Y-46839D01*
X101625Y-46770D01*
X101417Y-46781D01*
X101277Y-46839D01*
X101252Y-46932D01*
X101550Y-47229D01*
X101847Y-46932D01*
X101847Y-47073D01*
X101620Y-47300D01*
X101917Y-47597D01*
X102010Y-47572D01*
X102079Y-47375D01*
X102079Y-49515D01*
X102075Y-49515D01*
X102075Y-48196D01*
X101995Y-48003D01*
X101847Y-47855D01*
X101721Y-47802D01*
X101822Y-47760D01*
X101847Y-47667D01*
X101550Y-47370D01*
X101479Y-47441D01*
X101479Y-47300D01*
X101182Y-47002D01*
X101089Y-47027D01*
X101020Y-47224D01*
X101031Y-47432D01*
X101089Y-47572D01*
X101182Y-47597D01*
X101479Y-47300D01*
X101479Y-47441D01*
X101252Y-47667D01*
X101277Y-47760D01*
X101387Y-47799D01*
X101253Y-47854D01*
X101105Y-48002D01*
X101025Y-48195D01*
X101024Y-48403D01*
X101104Y-48597D01*
X101252Y-48744D01*
X101445Y-48824D01*
X101653Y-48825D01*
X101847Y-48745D01*
X101994Y-48597D01*
X102074Y-48404D01*
X102075Y-48196D01*
X102075Y-49515D01*
X102034Y-49515D01*
X101819Y-49604D01*
X101654Y-49768D01*
X101565Y-49983D01*
X101565Y-50215D01*
X101654Y-50430D01*
X101818Y-50595D01*
X102033Y-50684D01*
X102265Y-50684D01*
X102480Y-50595D01*
X102645Y-50431D01*
X102653Y-50412D01*
X102738Y-50440D01*
X103079Y-50100D01*
X103079Y-50241D01*
X102809Y-50511D01*
X102841Y-50609D01*
X103059Y-50689D01*
X103292Y-50678D01*
X103458Y-50609D01*
X103490Y-50511D01*
X103490Y-50980D01*
X99729Y-50980D01*
X99729Y-49475D01*
X99718Y-49267D01*
X99660Y-49127D01*
X99567Y-49102D01*
X99497Y-49173D01*
X99497Y-49032D01*
X99472Y-48939D01*
X99455Y-48933D01*
X99455Y-47299D01*
X99379Y-47113D01*
X99236Y-46971D01*
X99051Y-46894D01*
X98849Y-46894D01*
X98663Y-46970D01*
X98521Y-47113D01*
X98444Y-47298D01*
X98444Y-47500D01*
X98520Y-47686D01*
X98663Y-47828D01*
X98848Y-47905D01*
X99050Y-47905D01*
X99236Y-47829D01*
X99378Y-47686D01*
X99455Y-47501D01*
X99455Y-47299D01*
X99455Y-48933D01*
X99275Y-48870D01*
X99067Y-48881D01*
X98927Y-48939D01*
X98902Y-49032D01*
X99200Y-49329D01*
X99497Y-49032D01*
X99497Y-49173D01*
X99270Y-49400D01*
X99567Y-49697D01*
X99660Y-49672D01*
X99729Y-49475D01*
X99729Y-50980D01*
X99497Y-50980D01*
X99497Y-49767D01*
X99200Y-49470D01*
X99129Y-49541D01*
X99129Y-49400D01*
X98832Y-49102D01*
X98739Y-49127D01*
X98700Y-49237D01*
X98645Y-49103D01*
X98497Y-48955D01*
X98304Y-48875D01*
X98096Y-48874D01*
X97903Y-48954D01*
X97755Y-49102D01*
X97675Y-49295D01*
X97674Y-49503D01*
X97754Y-49697D01*
X97902Y-49844D01*
X98095Y-49924D01*
X98303Y-49925D01*
X98497Y-49845D01*
X98644Y-49697D01*
X98697Y-49571D01*
X98739Y-49672D01*
X98832Y-49697D01*
X99129Y-49400D01*
X99129Y-49541D01*
X98902Y-49767D01*
X98927Y-49860D01*
X99124Y-49929D01*
X99332Y-49918D01*
X99472Y-49860D01*
X99497Y-49767D01*
X99497Y-50980D01*
X97455Y-50980D01*
X97455Y-47299D01*
X97379Y-47113D01*
X97297Y-47031D01*
X97297Y-45867D01*
X97000Y-45570D01*
X96929Y-45641D01*
X96929Y-45500D01*
X96632Y-45202D01*
X96539Y-45227D01*
X96500Y-45337D01*
X96445Y-45203D01*
X96297Y-45055D01*
X96297Y-45054D01*
X96297Y-42867D01*
X96000Y-42570D01*
X95929Y-42641D01*
X95929Y-42500D01*
X95632Y-42202D01*
X95539Y-42227D01*
X95500Y-42337D01*
X95445Y-42203D01*
X95297Y-42055D01*
X95104Y-41975D01*
X94896Y-41974D01*
X94703Y-42054D01*
X94555Y-42202D01*
X94499Y-42335D01*
X94445Y-42203D01*
X94297Y-42055D01*
X94104Y-41975D01*
X93896Y-41974D01*
X93834Y-42000D01*
X93834Y-40884D01*
X93745Y-40669D01*
X93581Y-40504D01*
X93366Y-40415D01*
X93134Y-40415D01*
X92919Y-40504D01*
X92754Y-40668D01*
X92750Y-40679D01*
X92745Y-40669D01*
X92581Y-40504D01*
X92366Y-40415D01*
X92134Y-40415D01*
X91919Y-40504D01*
X91754Y-40668D01*
X91746Y-40687D01*
X91661Y-40659D01*
X91590Y-40730D01*
X91590Y-40588D01*
X91558Y-40490D01*
X91340Y-40410D01*
X91107Y-40421D01*
X90941Y-40490D01*
X90909Y-40588D01*
X91250Y-40929D01*
X91590Y-40588D01*
X91590Y-40730D01*
X91320Y-41000D01*
X91661Y-41340D01*
X91746Y-41312D01*
X91754Y-41330D01*
X91918Y-41495D01*
X92133Y-41584D01*
X92365Y-41584D01*
X92580Y-41495D01*
X92745Y-41331D01*
X92749Y-41320D01*
X92754Y-41330D01*
X92918Y-41495D01*
X93133Y-41584D01*
X93365Y-41584D01*
X93580Y-41495D01*
X93745Y-41331D01*
X93834Y-41116D01*
X93834Y-40884D01*
X93834Y-42000D01*
X93703Y-42054D01*
X93555Y-42202D01*
X93499Y-42335D01*
X93445Y-42203D01*
X93297Y-42055D01*
X93104Y-41975D01*
X92896Y-41974D01*
X92703Y-42054D01*
X92555Y-42202D01*
X92499Y-42335D01*
X92445Y-42203D01*
X92297Y-42055D01*
X92104Y-41975D01*
X91896Y-41974D01*
X91703Y-42054D01*
X91590Y-42167D01*
X91590Y-41411D01*
X91250Y-41070D01*
X91179Y-41141D01*
X91179Y-41000D01*
X90838Y-40659D01*
X90753Y-40687D01*
X90745Y-40669D01*
X90581Y-40504D01*
X90366Y-40415D01*
X90134Y-40415D01*
X89919Y-40504D01*
X89754Y-40668D01*
X89665Y-40883D01*
X89665Y-41115D01*
X89754Y-41330D01*
X89918Y-41495D01*
X90133Y-41584D01*
X90365Y-41584D01*
X90580Y-41495D01*
X90745Y-41331D01*
X90753Y-41312D01*
X90838Y-41340D01*
X91179Y-41000D01*
X91179Y-41141D01*
X90909Y-41411D01*
X90941Y-41509D01*
X91159Y-41589D01*
X91392Y-41578D01*
X91558Y-41509D01*
X91590Y-41411D01*
X91590Y-42167D01*
X91555Y-42202D01*
X91499Y-42335D01*
X91445Y-42203D01*
X91297Y-42055D01*
X91104Y-41975D01*
X90896Y-41974D01*
X90703Y-42054D01*
X90555Y-42202D01*
X90499Y-42335D01*
X90445Y-42203D01*
X90297Y-42055D01*
X90104Y-41975D01*
X89896Y-41974D01*
X89703Y-42054D01*
X89555Y-42202D01*
X89475Y-42395D01*
X89474Y-42603D01*
X89554Y-42797D01*
X89702Y-42944D01*
X89895Y-43024D01*
X90103Y-43025D01*
X90297Y-42945D01*
X90444Y-42797D01*
X90500Y-42664D01*
X90554Y-42797D01*
X90702Y-42944D01*
X90895Y-43024D01*
X91103Y-43025D01*
X91297Y-42945D01*
X91444Y-42797D01*
X91500Y-42664D01*
X91554Y-42797D01*
X91702Y-42944D01*
X91895Y-43024D01*
X92103Y-43025D01*
X92297Y-42945D01*
X92444Y-42797D01*
X92500Y-42664D01*
X92554Y-42797D01*
X92702Y-42944D01*
X92895Y-43024D01*
X93103Y-43025D01*
X93297Y-42945D01*
X93444Y-42797D01*
X93500Y-42664D01*
X93554Y-42797D01*
X93702Y-42944D01*
X93895Y-43024D01*
X94103Y-43025D01*
X94297Y-42945D01*
X94444Y-42797D01*
X94500Y-42664D01*
X94554Y-42797D01*
X94702Y-42944D01*
X94895Y-43024D01*
X95103Y-43025D01*
X95297Y-42945D01*
X95444Y-42797D01*
X95497Y-42671D01*
X95539Y-42772D01*
X95632Y-42797D01*
X95929Y-42500D01*
X95929Y-42641D01*
X95702Y-42867D01*
X95727Y-42960D01*
X95924Y-43029D01*
X96132Y-43018D01*
X96272Y-42960D01*
X96297Y-42867D01*
X96297Y-45054D01*
X96104Y-44975D01*
X95896Y-44974D01*
X95703Y-45054D01*
X95555Y-45202D01*
X95499Y-45335D01*
X95445Y-45203D01*
X95297Y-45055D01*
X95104Y-44975D01*
X94896Y-44974D01*
X94703Y-45054D01*
X94555Y-45202D01*
X94499Y-45335D01*
X94445Y-45203D01*
X94297Y-45055D01*
X94104Y-44975D01*
X93896Y-44974D01*
X93703Y-45054D01*
X93555Y-45202D01*
X93499Y-45335D01*
X93445Y-45203D01*
X93297Y-45055D01*
X93104Y-44975D01*
X92896Y-44974D01*
X92703Y-45054D01*
X92555Y-45202D01*
X92499Y-45335D01*
X92445Y-45203D01*
X92297Y-45055D01*
X92104Y-44975D01*
X91896Y-44974D01*
X91703Y-45054D01*
X91555Y-45202D01*
X91499Y-45335D01*
X91445Y-45203D01*
X91297Y-45055D01*
X91104Y-44975D01*
X90896Y-44974D01*
X90703Y-45054D01*
X90555Y-45202D01*
X90525Y-45274D01*
X90525Y-45175D01*
X90487Y-45083D01*
X90416Y-45013D01*
X90324Y-44975D01*
X90225Y-44974D01*
X89675Y-44974D01*
X89583Y-45012D01*
X89513Y-45083D01*
X89475Y-45175D01*
X89474Y-45274D01*
X89474Y-45824D01*
X89512Y-45916D01*
X89583Y-45986D01*
X89675Y-46024D01*
X89774Y-46025D01*
X90324Y-46025D01*
X90416Y-45987D01*
X90486Y-45916D01*
X90524Y-45824D01*
X90525Y-45725D01*
X90525Y-45725D01*
X90554Y-45797D01*
X90702Y-45944D01*
X90895Y-46024D01*
X91103Y-46025D01*
X91297Y-45945D01*
X91444Y-45797D01*
X91500Y-45664D01*
X91554Y-45797D01*
X91702Y-45944D01*
X91895Y-46024D01*
X92103Y-46025D01*
X92297Y-45945D01*
X92444Y-45797D01*
X92500Y-45664D01*
X92554Y-45797D01*
X92702Y-45944D01*
X92895Y-46024D01*
X93103Y-46025D01*
X93297Y-45945D01*
X93444Y-45797D01*
X93500Y-45664D01*
X93554Y-45797D01*
X93702Y-45944D01*
X93895Y-46024D01*
X94103Y-46025D01*
X94297Y-45945D01*
X94444Y-45797D01*
X94500Y-45664D01*
X94554Y-45797D01*
X94702Y-45944D01*
X94895Y-46024D01*
X95103Y-46025D01*
X95297Y-45945D01*
X95444Y-45797D01*
X95500Y-45664D01*
X95554Y-45797D01*
X95702Y-45944D01*
X95895Y-46024D01*
X96103Y-46025D01*
X96297Y-45945D01*
X96444Y-45797D01*
X96497Y-45671D01*
X96539Y-45772D01*
X96632Y-45797D01*
X96929Y-45500D01*
X96929Y-45641D01*
X96702Y-45867D01*
X96727Y-45960D01*
X96924Y-46029D01*
X97132Y-46018D01*
X97272Y-45960D01*
X97297Y-45867D01*
X97297Y-47031D01*
X97236Y-46971D01*
X97051Y-46894D01*
X96849Y-46894D01*
X96663Y-46970D01*
X96521Y-47113D01*
X96444Y-47298D01*
X96444Y-47500D01*
X96520Y-47686D01*
X96663Y-47828D01*
X96848Y-47905D01*
X97050Y-47905D01*
X97236Y-47829D01*
X97378Y-47686D01*
X97455Y-47501D01*
X97455Y-47299D01*
X97455Y-50980D01*
X96084Y-50980D01*
X96084Y-49884D01*
X95995Y-49669D01*
X95831Y-49504D01*
X95616Y-49415D01*
X95384Y-49415D01*
X95169Y-49504D01*
X95050Y-49623D01*
X95050Y-48391D01*
X94966Y-48188D01*
X94811Y-48034D01*
X94609Y-47950D01*
X94391Y-47949D01*
X94188Y-48033D01*
X94034Y-48188D01*
X93950Y-48390D01*
X93949Y-48608D01*
X94033Y-48811D01*
X94188Y-48965D01*
X94390Y-49049D01*
X94608Y-49050D01*
X94811Y-48966D01*
X94965Y-48811D01*
X95049Y-48609D01*
X95050Y-48391D01*
X95050Y-49623D01*
X95004Y-49668D01*
X95000Y-49679D01*
X94995Y-49669D01*
X94831Y-49504D01*
X94616Y-49415D01*
X94384Y-49415D01*
X94169Y-49504D01*
X94004Y-49668D01*
X94000Y-49679D01*
X93995Y-49669D01*
X93831Y-49504D01*
X93616Y-49415D01*
X93384Y-49415D01*
X93169Y-49504D01*
X93004Y-49668D01*
X93000Y-49679D01*
X92995Y-49669D01*
X92831Y-49504D01*
X92616Y-49415D01*
X92384Y-49415D01*
X92169Y-49504D01*
X92004Y-49668D01*
X92000Y-49679D01*
X91995Y-49669D01*
X91831Y-49504D01*
X91775Y-49481D01*
X91775Y-46896D01*
X91695Y-46703D01*
X91547Y-46555D01*
X91354Y-46475D01*
X91146Y-46474D01*
X90953Y-46554D01*
X90805Y-46702D01*
X90749Y-46835D01*
X90695Y-46703D01*
X90547Y-46555D01*
X90354Y-46475D01*
X90146Y-46474D01*
X89953Y-46554D01*
X89805Y-46702D01*
X89725Y-46895D01*
X89724Y-47103D01*
X89804Y-47297D01*
X89952Y-47444D01*
X90145Y-47524D01*
X90353Y-47525D01*
X90547Y-47445D01*
X90694Y-47297D01*
X90750Y-47164D01*
X90804Y-47297D01*
X90952Y-47444D01*
X91145Y-47524D01*
X91353Y-47525D01*
X91547Y-47445D01*
X91694Y-47297D01*
X91774Y-47104D01*
X91775Y-46896D01*
X91775Y-49481D01*
X91616Y-49415D01*
X91384Y-49415D01*
X91169Y-49504D01*
X91004Y-49668D01*
X90996Y-49687D01*
X90911Y-49659D01*
X90840Y-49730D01*
X90840Y-49588D01*
X90808Y-49490D01*
X90590Y-49410D01*
X90550Y-49412D01*
X90550Y-48391D01*
X90466Y-48188D01*
X90311Y-48034D01*
X90109Y-47950D01*
X89891Y-47949D01*
X89688Y-48033D01*
X89534Y-48188D01*
X89450Y-48390D01*
X89449Y-48608D01*
X89533Y-48811D01*
X89688Y-48965D01*
X89890Y-49049D01*
X90108Y-49050D01*
X90311Y-48966D01*
X90465Y-48811D01*
X90549Y-48609D01*
X90550Y-48391D01*
X90550Y-49412D01*
X90357Y-49421D01*
X90191Y-49490D01*
X90159Y-49588D01*
X90500Y-49929D01*
X90840Y-49588D01*
X90840Y-49730D01*
X90570Y-50000D01*
X90911Y-50340D01*
X90996Y-50312D01*
X91004Y-50330D01*
X91168Y-50495D01*
X91383Y-50584D01*
X91615Y-50584D01*
X91830Y-50495D01*
X91995Y-50331D01*
X91999Y-50320D01*
X92004Y-50330D01*
X92168Y-50495D01*
X92383Y-50584D01*
X92615Y-50584D01*
X92830Y-50495D01*
X92995Y-50331D01*
X92999Y-50320D01*
X93004Y-50330D01*
X93168Y-50495D01*
X93383Y-50584D01*
X93615Y-50584D01*
X93830Y-50495D01*
X93995Y-50331D01*
X93999Y-50320D01*
X94004Y-50330D01*
X94168Y-50495D01*
X94383Y-50584D01*
X94615Y-50584D01*
X94830Y-50495D01*
X94995Y-50331D01*
X94999Y-50320D01*
X95004Y-50330D01*
X95168Y-50495D01*
X95383Y-50584D01*
X95615Y-50584D01*
X95830Y-50495D01*
X95995Y-50331D01*
X96084Y-50116D01*
X96084Y-49884D01*
X96084Y-50980D01*
X90840Y-50980D01*
X90840Y-50411D01*
X90500Y-50070D01*
X90429Y-50141D01*
X90429Y-50000D01*
X90088Y-49659D01*
X89990Y-49691D01*
X89910Y-49909D01*
X89921Y-50142D01*
X89990Y-50308D01*
X90088Y-50340D01*
X90429Y-50000D01*
X90429Y-50141D01*
X90159Y-50411D01*
X90191Y-50509D01*
X90409Y-50589D01*
X90642Y-50578D01*
X90808Y-50509D01*
X90840Y-50411D01*
X90840Y-50980D01*
X88500Y-50980D01*
X88119Y-50980D01*
X88119Y-40269D01*
X88500Y-40269D01*
X104750Y-40269D01*
X105000Y-40269D01*
X106130Y-40269D01*
X106130Y-50980D01*
X106130Y-50980D01*
G37*
G54D16*
X106130Y-50980D02*
X105489Y-50980D01*
X105489Y-48290D01*
X105489Y-46990D01*
X105478Y-46757D01*
X105409Y-46591D01*
X105311Y-46559D01*
X105240Y-46630D01*
X105240Y-46488D01*
X105208Y-46390D01*
X104990Y-46310D01*
X104757Y-46321D01*
X104591Y-46390D01*
X104559Y-46488D01*
X104900Y-46829D01*
X105240Y-46488D01*
X105240Y-46630D01*
X104970Y-46900D01*
X105311Y-47240D01*
X105409Y-47208D01*
X105489Y-46990D01*
X105489Y-48290D01*
X105478Y-48057D01*
X105409Y-47891D01*
X105311Y-47859D01*
X105240Y-47930D01*
X105240Y-47788D01*
X105240Y-47311D01*
X104900Y-46970D01*
X104829Y-47041D01*
X104829Y-46900D01*
X104488Y-46559D01*
X104403Y-46587D01*
X104395Y-46569D01*
X104231Y-46404D01*
X104016Y-46315D01*
X103784Y-46315D01*
X103569Y-46404D01*
X103525Y-46448D01*
X103525Y-45396D01*
X103525Y-42396D01*
X103445Y-42203D01*
X103297Y-42055D01*
X103104Y-41975D01*
X102896Y-41974D01*
X102703Y-42054D01*
X102555Y-42202D01*
X102499Y-42335D01*
X102445Y-42203D01*
X102297Y-42055D01*
X102104Y-41975D01*
X101896Y-41974D01*
X101703Y-42054D01*
X101555Y-42202D01*
X101499Y-42335D01*
X101445Y-42203D01*
X101297Y-42055D01*
X101104Y-41975D01*
X100896Y-41974D01*
X100703Y-42054D01*
X100555Y-42202D01*
X100499Y-42335D01*
X100445Y-42203D01*
X100297Y-42055D01*
X100104Y-41975D01*
X99896Y-41974D01*
X99703Y-42054D01*
X99555Y-42202D01*
X99499Y-42335D01*
X99445Y-42203D01*
X99297Y-42055D01*
X99104Y-41975D01*
X98896Y-41974D01*
X98703Y-42054D01*
X98584Y-42172D01*
X98584Y-40884D01*
X98495Y-40669D01*
X98331Y-40504D01*
X98116Y-40415D01*
X97884Y-40415D01*
X97669Y-40504D01*
X97504Y-40668D01*
X97500Y-40679D01*
X97495Y-40669D01*
X97331Y-40504D01*
X97116Y-40415D01*
X96884Y-40415D01*
X96669Y-40504D01*
X96504Y-40668D01*
X96496Y-40687D01*
X96411Y-40659D01*
X96340Y-40730D01*
X96340Y-40588D01*
X96308Y-40490D01*
X96090Y-40410D01*
X95857Y-40421D01*
X95691Y-40490D01*
X95659Y-40588D01*
X96000Y-40929D01*
X96340Y-40588D01*
X96340Y-40730D01*
X96070Y-41000D01*
X96411Y-41340D01*
X96496Y-41312D01*
X96504Y-41330D01*
X96668Y-41495D01*
X96883Y-41584D01*
X97115Y-41584D01*
X97330Y-41495D01*
X97495Y-41331D01*
X97499Y-41320D01*
X97504Y-41330D01*
X97668Y-41495D01*
X97883Y-41584D01*
X98115Y-41584D01*
X98330Y-41495D01*
X98495Y-41331D01*
X98584Y-41116D01*
X98584Y-40884D01*
X98584Y-42172D01*
X98555Y-42202D01*
X98499Y-42335D01*
X98445Y-42203D01*
X98297Y-42055D01*
X98104Y-41975D01*
X97896Y-41974D01*
X97703Y-42054D01*
X97555Y-42202D01*
X97499Y-42335D01*
X97445Y-42203D01*
X97297Y-42055D01*
X97104Y-41975D01*
X96896Y-41974D01*
X96703Y-42054D01*
X96555Y-42202D01*
X96502Y-42328D01*
X96460Y-42227D01*
X96367Y-42202D01*
X96340Y-42230D01*
X96340Y-41411D01*
X96000Y-41070D01*
X95929Y-41141D01*
X95929Y-41000D01*
X95588Y-40659D01*
X95490Y-40691D01*
X95410Y-40909D01*
X95421Y-41142D01*
X95490Y-41308D01*
X95588Y-41340D01*
X95929Y-41000D01*
X95929Y-41141D01*
X95659Y-41411D01*
X95691Y-41509D01*
X95909Y-41589D01*
X96142Y-41578D01*
X96308Y-41509D01*
X96340Y-41411D01*
X96340Y-42230D01*
X96297Y-42273D01*
X96297Y-42132D01*
X96272Y-42039D01*
X96075Y-41970D01*
X95867Y-41981D01*
X95727Y-42039D01*
X95702Y-42132D01*
X96000Y-42429D01*
X96297Y-42132D01*
X96297Y-42273D01*
X96070Y-42500D01*
X96367Y-42797D01*
X96460Y-42772D01*
X96499Y-42662D01*
X96554Y-42797D01*
X96702Y-42944D01*
X96895Y-43024D01*
X97103Y-43025D01*
X97297Y-42945D01*
X97444Y-42797D01*
X97500Y-42664D01*
X97554Y-42797D01*
X97702Y-42944D01*
X97895Y-43024D01*
X98103Y-43025D01*
X98297Y-42945D01*
X98444Y-42797D01*
X98500Y-42664D01*
X98554Y-42797D01*
X98702Y-42944D01*
X98895Y-43024D01*
X99103Y-43025D01*
X99297Y-42945D01*
X99444Y-42797D01*
X99500Y-42664D01*
X99554Y-42797D01*
X99702Y-42944D01*
X99895Y-43024D01*
X100103Y-43025D01*
X100297Y-42945D01*
X100444Y-42797D01*
X100500Y-42664D01*
X100554Y-42797D01*
X100702Y-42944D01*
X100895Y-43024D01*
X101103Y-43025D01*
X101297Y-42945D01*
X101444Y-42797D01*
X101500Y-42664D01*
X101554Y-42797D01*
X101702Y-42944D01*
X101895Y-43024D01*
X102103Y-43025D01*
X102297Y-42945D01*
X102444Y-42797D01*
X102500Y-42664D01*
X102554Y-42797D01*
X102702Y-42944D01*
X102895Y-43024D01*
X103103Y-43025D01*
X103297Y-42945D01*
X103444Y-42797D01*
X103524Y-42604D01*
X103525Y-42396D01*
X103525Y-45396D01*
X103445Y-45203D01*
X103297Y-45055D01*
X103104Y-44975D01*
X102896Y-44974D01*
X102703Y-45054D01*
X102555Y-45202D01*
X102499Y-45335D01*
X102445Y-45203D01*
X102297Y-45055D01*
X102104Y-44975D01*
X101896Y-44974D01*
X101703Y-45054D01*
X101555Y-45202D01*
X101499Y-45335D01*
X101445Y-45203D01*
X101297Y-45055D01*
X101104Y-44975D01*
X100896Y-44974D01*
X100703Y-45054D01*
X100555Y-45202D01*
X100499Y-45335D01*
X100445Y-45203D01*
X100297Y-45055D01*
X100104Y-44975D01*
X99896Y-44974D01*
X99703Y-45054D01*
X99555Y-45202D01*
X99499Y-45335D01*
X99445Y-45203D01*
X99297Y-45055D01*
X99104Y-44975D01*
X98896Y-44974D01*
X98703Y-45054D01*
X98555Y-45202D01*
X98499Y-45335D01*
X98445Y-45203D01*
X98297Y-45055D01*
X98104Y-44975D01*
X97896Y-44974D01*
X97703Y-45054D01*
X97555Y-45202D01*
X97502Y-45328D01*
X97460Y-45227D01*
X97367Y-45202D01*
X97297Y-45273D01*
X97297Y-45132D01*
X97272Y-45039D01*
X97075Y-44970D01*
X96867Y-44981D01*
X96727Y-45039D01*
X96702Y-45132D01*
X97000Y-45429D01*
X97297Y-45132D01*
X97297Y-45273D01*
X97070Y-45500D01*
X97367Y-45797D01*
X97460Y-45772D01*
X97499Y-45662D01*
X97554Y-45797D01*
X97702Y-45944D01*
X97895Y-46024D01*
X98103Y-46025D01*
X98297Y-45945D01*
X98444Y-45797D01*
X98500Y-45664D01*
X98554Y-45797D01*
X98702Y-45944D01*
X98895Y-46024D01*
X99103Y-46025D01*
X99297Y-45945D01*
X99444Y-45797D01*
X99500Y-45664D01*
X99554Y-45797D01*
X99702Y-45944D01*
X99895Y-46024D01*
X100103Y-46025D01*
X100297Y-45945D01*
X100444Y-45797D01*
X100500Y-45664D01*
X100554Y-45797D01*
X100702Y-45944D01*
X100895Y-46024D01*
X101103Y-46025D01*
X101297Y-45945D01*
X101444Y-45797D01*
X101500Y-45664D01*
X101554Y-45797D01*
X101702Y-45944D01*
X101895Y-46024D01*
X102103Y-46025D01*
X102297Y-45945D01*
X102444Y-45797D01*
X102500Y-45664D01*
X102554Y-45797D01*
X102702Y-45944D01*
X102895Y-46024D01*
X103103Y-46025D01*
X103297Y-45945D01*
X103444Y-45797D01*
X103524Y-45604D01*
X103525Y-45396D01*
X103525Y-46448D01*
X103404Y-46568D01*
X103315Y-46783D01*
X103315Y-47015D01*
X103404Y-47230D01*
X103568Y-47395D01*
X103783Y-47484D01*
X104015Y-47484D01*
X104230Y-47395D01*
X104395Y-47231D01*
X104403Y-47212D01*
X104488Y-47240D01*
X104829Y-46900D01*
X104829Y-47041D01*
X104559Y-47311D01*
X104591Y-47409D01*
X104809Y-47489D01*
X105042Y-47478D01*
X105208Y-47409D01*
X105240Y-47311D01*
X105240Y-47788D01*
X105208Y-47690D01*
X104990Y-47610D01*
X104757Y-47621D01*
X104591Y-47690D01*
X104559Y-47788D01*
X104900Y-48129D01*
X105240Y-47788D01*
X105240Y-47930D01*
X104970Y-48200D01*
X105311Y-48540D01*
X105409Y-48508D01*
X105489Y-48290D01*
X105489Y-50980D01*
X105240Y-50980D01*
X105240Y-48611D01*
X104900Y-48270D01*
X104829Y-48341D01*
X104829Y-48200D01*
X104488Y-47859D01*
X104403Y-47887D01*
X104395Y-47869D01*
X104231Y-47704D01*
X104016Y-47615D01*
X103784Y-47615D01*
X103569Y-47704D01*
X103404Y-47868D01*
X103315Y-48083D01*
X103315Y-48315D01*
X103404Y-48530D01*
X103568Y-48695D01*
X103783Y-48784D01*
X104015Y-48784D01*
X104230Y-48695D01*
X104395Y-48531D01*
X104403Y-48512D01*
X104488Y-48540D01*
X104829Y-48200D01*
X104829Y-48341D01*
X104559Y-48611D01*
X104591Y-48709D01*
X104809Y-48789D01*
X105042Y-48778D01*
X105208Y-48709D01*
X105240Y-48611D01*
X105240Y-50980D01*
X105000Y-50980D01*
X104750Y-50980D01*
X103739Y-50980D01*
X103739Y-50190D01*
X103728Y-49957D01*
X103659Y-49791D01*
X103561Y-49759D01*
X103490Y-49830D01*
X103490Y-49688D01*
X103458Y-49590D01*
X103240Y-49510D01*
X103007Y-49521D01*
X102841Y-49590D01*
X102809Y-49688D01*
X103150Y-50029D01*
X103490Y-49688D01*
X103490Y-49830D01*
X103220Y-50100D01*
X103561Y-50440D01*
X103659Y-50408D01*
X103739Y-50190D01*
X103739Y-50980D01*
X103490Y-50980D01*
X103490Y-50511D01*
X103150Y-50170D01*
X103079Y-50241D01*
X103079Y-50100D01*
X102738Y-49759D01*
X102653Y-49787D01*
X102645Y-49769D01*
X102481Y-49604D01*
X102266Y-49515D01*
X102079Y-49515D01*
X102079Y-47375D01*
X102068Y-47167D01*
X102010Y-47027D01*
X101917Y-47002D01*
X101847Y-47073D01*
X101847Y-46932D01*
X101822Y-46839D01*
X101625Y-46770D01*
X101417Y-46781D01*
X101277Y-46839D01*
X101252Y-46932D01*
X101550Y-47229D01*
X101847Y-46932D01*
X101847Y-47073D01*
X101620Y-47300D01*
X101917Y-47597D01*
X102010Y-47572D01*
X102079Y-47375D01*
X102079Y-49515D01*
X102075Y-49515D01*
X102075Y-48196D01*
X101995Y-48003D01*
X101847Y-47855D01*
X101721Y-47802D01*
X101822Y-47760D01*
X101847Y-47667D01*
X101550Y-47370D01*
X101479Y-47441D01*
X101479Y-47300D01*
X101182Y-47002D01*
X101089Y-47027D01*
X101020Y-47224D01*
X101031Y-47432D01*
X101089Y-47572D01*
X101182Y-47597D01*
X101479Y-47300D01*
X101479Y-47441D01*
X101252Y-47667D01*
X101277Y-47760D01*
X101387Y-47799D01*
X101253Y-47854D01*
X101105Y-48002D01*
X101025Y-48195D01*
X101024Y-48403D01*
X101104Y-48597D01*
X101252Y-48744D01*
X101445Y-48824D01*
X101653Y-48825D01*
X101847Y-48745D01*
X101994Y-48597D01*
X102074Y-48404D01*
X102075Y-48196D01*
X102075Y-49515D01*
X102034Y-49515D01*
X101819Y-49604D01*
X101654Y-49768D01*
X101565Y-49983D01*
X101565Y-50215D01*
X101654Y-50430D01*
X101818Y-50595D01*
X102033Y-50684D01*
X102265Y-50684D01*
X102480Y-50595D01*
X102645Y-50431D01*
X102653Y-50412D01*
X102738Y-50440D01*
X103079Y-50100D01*
X103079Y-50241D01*
X102809Y-50511D01*
X102841Y-50609D01*
X103059Y-50689D01*
X103292Y-50678D01*
X103458Y-50609D01*
X103490Y-50511D01*
X103490Y-50980D01*
X99729Y-50980D01*
X99729Y-49475D01*
X99718Y-49267D01*
X99660Y-49127D01*
X99567Y-49102D01*
X99497Y-49173D01*
X99497Y-49032D01*
X99472Y-48939D01*
X99455Y-48933D01*
X99455Y-47299D01*
X99379Y-47113D01*
X99236Y-46971D01*
X99051Y-46894D01*
X98849Y-46894D01*
X98663Y-46970D01*
X98521Y-47113D01*
X98444Y-47298D01*
X98444Y-47500D01*
X98520Y-47686D01*
X98663Y-47828D01*
X98848Y-47905D01*
X99050Y-47905D01*
X99236Y-47829D01*
X99378Y-47686D01*
X99455Y-47501D01*
X99455Y-47299D01*
X99455Y-48933D01*
X99275Y-48870D01*
X99067Y-48881D01*
X98927Y-48939D01*
X98902Y-49032D01*
X99200Y-49329D01*
X99497Y-49032D01*
X99497Y-49173D01*
X99270Y-49400D01*
X99567Y-49697D01*
X99660Y-49672D01*
X99729Y-49475D01*
X99729Y-50980D01*
X99497Y-50980D01*
X99497Y-49767D01*
X99200Y-49470D01*
X99129Y-49541D01*
X99129Y-49400D01*
X98832Y-49102D01*
X98739Y-49127D01*
X98700Y-49237D01*
X98645Y-49103D01*
X98497Y-48955D01*
X98304Y-48875D01*
X98096Y-48874D01*
X97903Y-48954D01*
X97755Y-49102D01*
X97675Y-49295D01*
X97674Y-49503D01*
X97754Y-49697D01*
X97902Y-49844D01*
X98095Y-49924D01*
X98303Y-49925D01*
X98497Y-49845D01*
X98644Y-49697D01*
X98697Y-49571D01*
X98739Y-49672D01*
X98832Y-49697D01*
X99129Y-49400D01*
X99129Y-49541D01*
X98902Y-49767D01*
X98927Y-49860D01*
X99124Y-49929D01*
X99332Y-49918D01*
X99472Y-49860D01*
X99497Y-49767D01*
X99497Y-50980D01*
X97455Y-50980D01*
X97455Y-47299D01*
X97379Y-47113D01*
X97297Y-47031D01*
X97297Y-45867D01*
X97000Y-45570D01*
X96929Y-45641D01*
X96929Y-45500D01*
X96632Y-45202D01*
X96539Y-45227D01*
X96500Y-45337D01*
X96445Y-45203D01*
X96297Y-45055D01*
X96297Y-45054D01*
X96297Y-42867D01*
X96000Y-42570D01*
X95929Y-42641D01*
X95929Y-42500D01*
X95632Y-42202D01*
X95539Y-42227D01*
X95500Y-42337D01*
X95445Y-42203D01*
X95297Y-42055D01*
X95104Y-41975D01*
X94896Y-41974D01*
X94703Y-42054D01*
X94555Y-42202D01*
X94499Y-42335D01*
X94445Y-42203D01*
X94297Y-42055D01*
X94104Y-41975D01*
X93896Y-41974D01*
X93834Y-42000D01*
X93834Y-40884D01*
X93745Y-40669D01*
X93581Y-40504D01*
X93366Y-40415D01*
X93134Y-40415D01*
X92919Y-40504D01*
X92754Y-40668D01*
X92750Y-40679D01*
X92745Y-40669D01*
X92581Y-40504D01*
X92366Y-40415D01*
X92134Y-40415D01*
X91919Y-40504D01*
X91754Y-40668D01*
X91746Y-40687D01*
X91661Y-40659D01*
X91590Y-40730D01*
X91590Y-40588D01*
X91558Y-40490D01*
X91340Y-40410D01*
X91107Y-40421D01*
X90941Y-40490D01*
X90909Y-40588D01*
X91250Y-40929D01*
X91590Y-40588D01*
X91590Y-40730D01*
X91320Y-41000D01*
X91661Y-41340D01*
X91746Y-41312D01*
X91754Y-41330D01*
X91918Y-41495D01*
X92133Y-41584D01*
X92365Y-41584D01*
X92580Y-41495D01*
X92745Y-41331D01*
X92749Y-41320D01*
X92754Y-41330D01*
X92918Y-41495D01*
X93133Y-41584D01*
X93365Y-41584D01*
X93580Y-41495D01*
X93745Y-41331D01*
X93834Y-41116D01*
X93834Y-40884D01*
X93834Y-42000D01*
X93703Y-42054D01*
X93555Y-42202D01*
X93499Y-42335D01*
X93445Y-42203D01*
X93297Y-42055D01*
X93104Y-41975D01*
X92896Y-41974D01*
X92703Y-42054D01*
X92555Y-42202D01*
X92499Y-42335D01*
X92445Y-42203D01*
X92297Y-42055D01*
X92104Y-41975D01*
X91896Y-41974D01*
X91703Y-42054D01*
X91590Y-42167D01*
X91590Y-41411D01*
X91250Y-41070D01*
X91179Y-41141D01*
X91179Y-41000D01*
X90838Y-40659D01*
X90753Y-40687D01*
X90745Y-40669D01*
X90581Y-40504D01*
X90366Y-40415D01*
X90134Y-40415D01*
X89919Y-40504D01*
X89754Y-40668D01*
X89665Y-40883D01*
X89665Y-41115D01*
X89754Y-41330D01*
X89918Y-41495D01*
X90133Y-41584D01*
X90365Y-41584D01*
X90580Y-41495D01*
X90745Y-41331D01*
X90753Y-41312D01*
X90838Y-41340D01*
X91179Y-41000D01*
X91179Y-41141D01*
X90909Y-41411D01*
X90941Y-41509D01*
X91159Y-41589D01*
X91392Y-41578D01*
X91558Y-41509D01*
X91590Y-41411D01*
X91590Y-42167D01*
X91555Y-42202D01*
X91499Y-42335D01*
X91445Y-42203D01*
X91297Y-42055D01*
X91104Y-41975D01*
X90896Y-41974D01*
X90703Y-42054D01*
X90555Y-42202D01*
X90499Y-42335D01*
X90445Y-42203D01*
X90297Y-42055D01*
X90104Y-41975D01*
X89896Y-41974D01*
X89703Y-42054D01*
X89555Y-42202D01*
X89475Y-42395D01*
X89474Y-42603D01*
X89554Y-42797D01*
X89702Y-42944D01*
X89895Y-43024D01*
X90103Y-43025D01*
X90297Y-42945D01*
X90444Y-42797D01*
X90500Y-42664D01*
X90554Y-42797D01*
X90702Y-42944D01*
X90895Y-43024D01*
X91103Y-43025D01*
X91297Y-42945D01*
X91444Y-42797D01*
X91500Y-42664D01*
X91554Y-42797D01*
X91702Y-42944D01*
X91895Y-43024D01*
X92103Y-43025D01*
X92297Y-42945D01*
X92444Y-42797D01*
X92500Y-42664D01*
X92554Y-42797D01*
X92702Y-42944D01*
X92895Y-43024D01*
X93103Y-43025D01*
X93297Y-42945D01*
X93444Y-42797D01*
X93500Y-42664D01*
X93554Y-42797D01*
X93702Y-42944D01*
X93895Y-43024D01*
X94103Y-43025D01*
X94297Y-42945D01*
X94444Y-42797D01*
X94500Y-42664D01*
X94554Y-42797D01*
X94702Y-42944D01*
X94895Y-43024D01*
X95103Y-43025D01*
X95297Y-42945D01*
X95444Y-42797D01*
X95497Y-42671D01*
X95539Y-42772D01*
X95632Y-42797D01*
X95929Y-42500D01*
X95929Y-42641D01*
X95702Y-42867D01*
X95727Y-42960D01*
X95924Y-43029D01*
X96132Y-43018D01*
X96272Y-42960D01*
X96297Y-42867D01*
X96297Y-45054D01*
X96104Y-44975D01*
X95896Y-44974D01*
X95703Y-45054D01*
X95555Y-45202D01*
X95499Y-45335D01*
X95445Y-45203D01*
X95297Y-45055D01*
X95104Y-44975D01*
X94896Y-44974D01*
X94703Y-45054D01*
X94555Y-45202D01*
X94499Y-45335D01*
X94445Y-45203D01*
X94297Y-45055D01*
X94104Y-44975D01*
X93896Y-44974D01*
X93703Y-45054D01*
X93555Y-45202D01*
X93499Y-45335D01*
X93445Y-45203D01*
X93297Y-45055D01*
X93104Y-44975D01*
X92896Y-44974D01*
X92703Y-45054D01*
X92555Y-45202D01*
X92499Y-45335D01*
X92445Y-45203D01*
X92297Y-45055D01*
X92104Y-44975D01*
X91896Y-44974D01*
X91703Y-45054D01*
X91555Y-45202D01*
X91499Y-45335D01*
X91445Y-45203D01*
X91297Y-45055D01*
X91104Y-44975D01*
X90896Y-44974D01*
X90703Y-45054D01*
X90555Y-45202D01*
X90525Y-45274D01*
X90525Y-45175D01*
X90487Y-45083D01*
X90416Y-45013D01*
X90324Y-44975D01*
X90225Y-44974D01*
X89675Y-44974D01*
X89583Y-45012D01*
X89513Y-45083D01*
X89475Y-45175D01*
X89474Y-45274D01*
X89474Y-45824D01*
X89512Y-45916D01*
X89583Y-45986D01*
X89675Y-46024D01*
X89774Y-46025D01*
X90324Y-46025D01*
X90416Y-45987D01*
X90486Y-45916D01*
X90524Y-45824D01*
X90525Y-45725D01*
X90525Y-45725D01*
X90554Y-45797D01*
X90702Y-45944D01*
X90895Y-46024D01*
X91103Y-46025D01*
X91297Y-45945D01*
X91444Y-45797D01*
X91500Y-45664D01*
X91554Y-45797D01*
X91702Y-45944D01*
X91895Y-46024D01*
X92103Y-46025D01*
X92297Y-45945D01*
X92444Y-45797D01*
X92500Y-45664D01*
X92554Y-45797D01*
X92702Y-45944D01*
X92895Y-46024D01*
X93103Y-46025D01*
X93297Y-45945D01*
X93444Y-45797D01*
X93500Y-45664D01*
X93554Y-45797D01*
X93702Y-45944D01*
X93895Y-46024D01*
X94103Y-46025D01*
X94297Y-45945D01*
X94444Y-45797D01*
X94500Y-45664D01*
X94554Y-45797D01*
X94702Y-45944D01*
X94895Y-46024D01*
X95103Y-46025D01*
X95297Y-45945D01*
X95444Y-45797D01*
X95500Y-45664D01*
X95554Y-45797D01*
X95702Y-45944D01*
X95895Y-46024D01*
X96103Y-46025D01*
X96297Y-45945D01*
X96444Y-45797D01*
X96497Y-45671D01*
X96539Y-45772D01*
X96632Y-45797D01*
X96929Y-45500D01*
X96929Y-45641D01*
X96702Y-45867D01*
X96727Y-45960D01*
X96924Y-46029D01*
X97132Y-46018D01*
X97272Y-45960D01*
X97297Y-45867D01*
X97297Y-47031D01*
X97236Y-46971D01*
X97051Y-46894D01*
X96849Y-46894D01*
X96663Y-46970D01*
X96521Y-47113D01*
X96444Y-47298D01*
X96444Y-47500D01*
X96520Y-47686D01*
X96663Y-47828D01*
X96848Y-47905D01*
X97050Y-47905D01*
X97236Y-47829D01*
X97378Y-47686D01*
X97455Y-47501D01*
X97455Y-47299D01*
X97455Y-50980D01*
X96084Y-50980D01*
X96084Y-49884D01*
X95995Y-49669D01*
X95831Y-49504D01*
X95616Y-49415D01*
X95384Y-49415D01*
X95169Y-49504D01*
X95050Y-49623D01*
X95050Y-48391D01*
X94966Y-48188D01*
X94811Y-48034D01*
X94609Y-47950D01*
X94391Y-47949D01*
X94188Y-48033D01*
X94034Y-48188D01*
X93950Y-48390D01*
X93949Y-48608D01*
X94033Y-48811D01*
X94188Y-48965D01*
X94390Y-49049D01*
X94608Y-49050D01*
X94811Y-48966D01*
X94965Y-48811D01*
X95049Y-48609D01*
X95050Y-48391D01*
X95050Y-49623D01*
X95004Y-49668D01*
X95000Y-49679D01*
X94995Y-49669D01*
X94831Y-49504D01*
X94616Y-49415D01*
X94384Y-49415D01*
X94169Y-49504D01*
X94004Y-49668D01*
X94000Y-49679D01*
X93995Y-49669D01*
X93831Y-49504D01*
X93616Y-49415D01*
X93384Y-49415D01*
X93169Y-49504D01*
X93004Y-49668D01*
X93000Y-49679D01*
X92995Y-49669D01*
X92831Y-49504D01*
X92616Y-49415D01*
X92384Y-49415D01*
X92169Y-49504D01*
X92004Y-49668D01*
X92000Y-49679D01*
X91995Y-49669D01*
X91831Y-49504D01*
X91775Y-49481D01*
X91775Y-46896D01*
X91695Y-46703D01*
X91547Y-46555D01*
X91354Y-46475D01*
X91146Y-46474D01*
X90953Y-46554D01*
X90805Y-46702D01*
X90749Y-46835D01*
X90695Y-46703D01*
X90547Y-46555D01*
X90354Y-46475D01*
X90146Y-46474D01*
X89953Y-46554D01*
X89805Y-46702D01*
X89725Y-46895D01*
X89724Y-47103D01*
X89804Y-47297D01*
X89952Y-47444D01*
X90145Y-47524D01*
X90353Y-47525D01*
X90547Y-47445D01*
X90694Y-47297D01*
X90750Y-47164D01*
X90804Y-47297D01*
X90952Y-47444D01*
X91145Y-47524D01*
X91353Y-47525D01*
X91547Y-47445D01*
X91694Y-47297D01*
X91774Y-47104D01*
X91775Y-46896D01*
X91775Y-49481D01*
X91616Y-49415D01*
X91384Y-49415D01*
X91169Y-49504D01*
X91004Y-49668D01*
X90996Y-49687D01*
X90911Y-49659D01*
X90840Y-49730D01*
X90840Y-49588D01*
X90808Y-49490D01*
X90590Y-49410D01*
X90550Y-49412D01*
X90550Y-48391D01*
X90466Y-48188D01*
X90311Y-48034D01*
X90109Y-47950D01*
X89891Y-47949D01*
X89688Y-48033D01*
X89534Y-48188D01*
X89450Y-48390D01*
X89449Y-48608D01*
X89533Y-48811D01*
X89688Y-48965D01*
X89890Y-49049D01*
X90108Y-49050D01*
X90311Y-48966D01*
X90465Y-48811D01*
X90549Y-48609D01*
X90550Y-48391D01*
X90550Y-49412D01*
X90357Y-49421D01*
X90191Y-49490D01*
X90159Y-49588D01*
X90500Y-49929D01*
X90840Y-49588D01*
X90840Y-49730D01*
X90570Y-50000D01*
X90911Y-50340D01*
X90996Y-50312D01*
X91004Y-50330D01*
X91168Y-50495D01*
X91383Y-50584D01*
X91615Y-50584D01*
X91830Y-50495D01*
X91995Y-50331D01*
X91999Y-50320D01*
X92004Y-50330D01*
X92168Y-50495D01*
X92383Y-50584D01*
X92615Y-50584D01*
X92830Y-50495D01*
X92995Y-50331D01*
X92999Y-50320D01*
X93004Y-50330D01*
X93168Y-50495D01*
X93383Y-50584D01*
X93615Y-50584D01*
X93830Y-50495D01*
X93995Y-50331D01*
X93999Y-50320D01*
X94004Y-50330D01*
X94168Y-50495D01*
X94383Y-50584D01*
X94615Y-50584D01*
X94830Y-50495D01*
X94995Y-50331D01*
X94999Y-50320D01*
X95004Y-50330D01*
X95168Y-50495D01*
X95383Y-50584D01*
X95615Y-50584D01*
X95830Y-50495D01*
X95995Y-50331D01*
X96084Y-50116D01*
X96084Y-49884D01*
X96084Y-50980D01*
X90840Y-50980D01*
X90840Y-50411D01*
X90500Y-50070D01*
X90429Y-50141D01*
X90429Y-50000D01*
X90088Y-49659D01*
X89990Y-49691D01*
X89910Y-49909D01*
X89921Y-50142D01*
X89990Y-50308D01*
X90088Y-50340D01*
X90429Y-50000D01*
X90429Y-50141D01*
X90159Y-50411D01*
X90191Y-50509D01*
X90409Y-50589D01*
X90642Y-50578D01*
X90808Y-50509D01*
X90840Y-50411D01*
X90840Y-50980D01*
X88500Y-50980D01*
X88119Y-50980D01*
X88119Y-40269D01*
X88500Y-40269D01*
X104750Y-40269D01*
X105000Y-40269D01*
X106130Y-40269D01*
X106130Y-50980D01*
M02*
