M48
METRIC,TZ
T1C0.700
T2C0.813
T3C0.900
T4C1.016
%
G90
G05
T1
X246253Y-120396
X251333Y-120396
T2
X228600Y-107950
X228600Y-115570
X229235Y-119380
X231140Y-107950
X231140Y-115570
X231775Y-119380
X233680Y-107950
X233680Y-115570
X236220Y-107950
X236220Y-115570
X238760Y-107950
X238760Y-115570
X241300Y-107950
X241300Y-115570
X243840Y-107950
X243840Y-115570
X246380Y-107950
X246380Y-115570
X248920Y-107950
X248920Y-115570
X249428Y-125476
X251460Y-107950
X251460Y-115570
X251968Y-125476
X254000Y-107950
X254000Y-115570
X256540Y-107950
X256540Y-115570
X257937Y-120142
X257937Y-122682
X259080Y-107950
X259080Y-115570
X261620Y-107950
X261620Y-115570
T3
X229235Y-104140
X229870Y-127000
X231775Y-104140
X232410Y-127000
X234315Y-104140
X234950Y-127000
X236855Y-104140
X237490Y-127000
X240030Y-127000
X242570Y-127000
X243840Y-104140
X246380Y-104140
X248920Y-104140
X259461Y-127254
X262001Y-127254
X263906Y-119126
X263906Y-122428
X266446Y-119126
X266446Y-122428
T4
X228600Y-123190
X240030Y-123190
T0
M30
