G04 (created by PCBNEW (22-Jun-2014 BZR 4027)-stable) date Sat 20 Dec 2014 16:30:47 GMT*
%MOIN*%
G04 Gerber Fmt 3.4, Leading zero omitted, Abs format*
%FSLAX34Y34*%
G01*
G70*
G90*
G04 APERTURE LIST*
%ADD10C,0.00590551*%
%ADD11C,0.06*%
%ADD12C,0.055*%
%ADD13R,0.055X0.055*%
%ADD14C,0.0669291*%
%ADD15C,0.0511811*%
%ADD16C,0.01*%
G04 APERTURE END LIST*
G54D10*
G54D11*
X90000Y-48500D03*
X94500Y-48500D03*
G54D12*
X91000Y-45500D03*
X92000Y-45500D03*
X93000Y-45500D03*
X94000Y-45500D03*
X95000Y-45500D03*
X96000Y-45500D03*
X97000Y-45500D03*
X98000Y-45500D03*
X99000Y-45500D03*
X100000Y-45500D03*
X101000Y-45500D03*
X102000Y-45500D03*
X103000Y-45500D03*
G54D13*
X90000Y-45500D03*
G54D12*
X103000Y-42500D03*
X102000Y-42500D03*
X101000Y-42500D03*
X100000Y-42500D03*
X99000Y-42500D03*
X98000Y-42500D03*
X97000Y-42500D03*
X96000Y-42500D03*
X95000Y-42500D03*
X94000Y-42500D03*
X93000Y-42500D03*
X92000Y-42500D03*
X91000Y-42500D03*
X90000Y-42500D03*
X98200Y-49400D03*
X99200Y-49400D03*
X101550Y-48300D03*
X101550Y-47300D03*
X90250Y-47000D03*
X91250Y-47000D03*
G54D14*
X95500Y-50000D03*
X94500Y-50000D03*
X93500Y-50000D03*
X92500Y-50000D03*
X91500Y-50000D03*
X90500Y-50000D03*
G54D15*
X98950Y-47400D03*
X96950Y-47400D03*
G54D14*
X91250Y-41000D03*
X92250Y-41000D03*
X90250Y-41000D03*
X93250Y-41000D03*
X96000Y-41000D03*
X97000Y-41000D03*
X98000Y-41000D03*
X103900Y-48200D03*
X104900Y-48200D03*
X103900Y-46900D03*
X104900Y-46900D03*
X102150Y-50100D03*
X103150Y-50100D03*
G54D16*
X92250Y-41000D02*
X92250Y-41250D01*
X90750Y-41750D02*
X90000Y-42500D01*
X91750Y-41750D02*
X90750Y-41750D01*
X92250Y-41250D02*
X91750Y-41750D01*
X98950Y-47400D02*
X98950Y-48000D01*
X99250Y-48300D02*
X101550Y-48300D01*
X98950Y-48000D02*
X99250Y-48300D01*
X99000Y-45500D02*
X99000Y-47350D01*
X99000Y-47350D02*
X98950Y-47400D01*
X96950Y-47400D02*
X96950Y-49100D01*
X97250Y-49400D02*
X98200Y-49400D01*
X96950Y-49100D02*
X97250Y-49400D01*
X98000Y-45500D02*
X98000Y-46350D01*
X98000Y-46350D02*
X96950Y-47400D01*
X91250Y-47000D02*
X92000Y-47000D01*
X95500Y-49500D02*
X95500Y-50000D01*
X95250Y-49250D02*
X95500Y-49500D01*
X94250Y-49250D02*
X95250Y-49250D01*
X92000Y-47000D02*
X94250Y-49250D01*
X97000Y-41000D02*
X97000Y-41250D01*
X94750Y-41750D02*
X94000Y-42500D01*
X96500Y-41750D02*
X94750Y-41750D01*
X97000Y-41250D02*
X96500Y-41750D01*
X90000Y-48500D02*
X90000Y-47750D01*
X89750Y-45500D02*
X90000Y-45500D01*
X89500Y-45750D02*
X89750Y-45500D01*
X89500Y-47250D02*
X89500Y-45750D01*
X90000Y-47750D02*
X89500Y-47250D01*
X90000Y-45500D02*
X90000Y-46000D01*
X90250Y-46250D02*
X90250Y-47000D01*
X90000Y-46000D02*
X90250Y-46250D01*
X94500Y-50000D02*
X93250Y-48750D01*
X92000Y-46000D02*
X92000Y-45500D01*
X91750Y-46250D02*
X92000Y-46000D01*
X91000Y-46250D02*
X91750Y-46250D01*
X90750Y-46500D02*
X91000Y-46250D01*
X90750Y-48250D02*
X90750Y-46500D01*
X91250Y-48750D02*
X90750Y-48250D01*
X93250Y-48750D02*
X91250Y-48750D01*
X93500Y-50000D02*
X93500Y-49750D01*
X91000Y-45250D02*
X91000Y-45500D01*
X90500Y-44750D02*
X91000Y-45250D01*
X89500Y-44750D02*
X90500Y-44750D01*
X89000Y-45250D02*
X89500Y-44750D01*
X89000Y-48750D02*
X89000Y-45250D01*
X89500Y-49250D02*
X89000Y-48750D01*
X93000Y-49250D02*
X89500Y-49250D01*
X93500Y-49750D02*
X93000Y-49250D01*
X93250Y-41000D02*
X93250Y-41250D01*
X91750Y-43250D02*
X91000Y-42500D01*
X92250Y-43250D02*
X91750Y-43250D01*
X92500Y-43000D02*
X92250Y-43250D01*
X92500Y-42000D02*
X92500Y-43000D01*
X93250Y-41250D02*
X92500Y-42000D01*
X103900Y-46900D02*
X102600Y-46900D01*
X102000Y-46300D02*
X102000Y-45500D01*
X102600Y-46900D02*
X102000Y-46300D01*
X103000Y-45500D02*
X104650Y-45500D01*
X104600Y-48900D02*
X103900Y-48200D01*
X105300Y-48900D02*
X104600Y-48900D01*
X105650Y-48550D02*
X105300Y-48900D01*
X105650Y-46500D02*
X105650Y-48550D01*
X104650Y-45500D02*
X105650Y-46500D01*
X102150Y-50100D02*
X101400Y-50100D01*
X97000Y-50750D02*
X96500Y-50250D01*
X100750Y-50750D02*
X97000Y-50750D01*
X101400Y-50100D02*
X100750Y-50750D01*
X92500Y-50000D02*
X92500Y-50250D01*
X95250Y-47000D02*
X95250Y-46250D01*
X95250Y-48500D02*
X95250Y-47000D01*
X96500Y-49750D02*
X95250Y-48500D01*
X96500Y-50250D02*
X96500Y-49750D01*
X96000Y-50750D02*
X96500Y-50250D01*
X93000Y-50750D02*
X96000Y-50750D01*
X92500Y-50250D02*
X93000Y-50750D01*
X98000Y-41000D02*
X98000Y-42500D01*
X96000Y-45500D02*
X96000Y-44000D01*
X98000Y-43250D02*
X98000Y-42500D01*
X97750Y-43500D02*
X98000Y-43250D01*
X96500Y-43500D02*
X97750Y-43500D01*
X96000Y-44000D02*
X96500Y-43500D01*
X90250Y-41000D02*
X90000Y-41000D01*
X94500Y-44000D02*
X96000Y-45500D01*
X90000Y-44000D02*
X94500Y-44000D01*
X89000Y-43000D02*
X90000Y-44000D01*
X89000Y-42000D02*
X89000Y-43000D01*
X90000Y-41000D02*
X89000Y-42000D01*
X94500Y-48500D02*
X94500Y-47000D01*
X94500Y-47000D02*
X95250Y-46250D01*
X95250Y-46250D02*
X96000Y-45500D01*
M02*
